<svg width="158" height="20" viewBox="0 0 158 20" fill="none" xmlns="http://www.w3.org/2000/svg">
<path d="M9.17578 4.04639C7.75163 4.04639 6.64893 4.5835 5.86768 5.65771C5.08643 6.7238 4.6958 8.21305 4.6958 10.1255C4.6958 14.105 6.18913 16.0947 9.17578 16.0947C10.429 16.0947 11.9468 15.7814 13.729 15.1548V18.3286C12.2642 18.939 10.6284 19.2441 8.82178 19.2441C6.22575 19.2441 4.24007 18.4588 2.86475 16.8882C1.48942 15.3094 0.801758 13.047 0.801758 10.1011C0.801758 8.24561 1.13949 6.62207 1.81494 5.23047C2.4904 3.83073 3.45882 2.76058 4.72021 2.02002C5.98975 1.27132 7.47493 0.896973 9.17578 0.896973C10.9092 0.896973 12.6507 1.31608 14.4004 2.1543L13.1797 5.23047C12.5124 4.91309 11.841 4.63639 11.1655 4.40039C10.4901 4.16439 9.82682 4.04639 9.17578 4.04639ZM20.9678 19H17.2446V0.00585938H20.9678V19ZM27.8525 12.1519C27.8525 13.5028 28.0723 14.5241 28.5117 15.2158C28.9593 15.9076 29.6836 16.2534 30.6846 16.2534C31.6774 16.2534 32.3895 15.9116 32.8208 15.228C33.2603 14.5363 33.48 13.5109 33.48 12.1519C33.48 10.8009 33.2603 9.78776 32.8208 9.1123C32.3813 8.43685 31.6611 8.09912 30.6602 8.09912C29.6673 8.09912 28.9512 8.43685 28.5117 9.1123C28.0723 9.77962 27.8525 10.7928 27.8525 12.1519ZM37.2886 12.1519C37.2886 14.3735 36.7026 16.111 35.5308 17.3643C34.3589 18.6175 32.7272 19.2441 30.6357 19.2441C29.3255 19.2441 28.1699 18.9593 27.1689 18.3896C26.168 17.8118 25.3989 16.9858 24.8618 15.9116C24.3247 14.8374 24.0562 13.5841 24.0562 12.1519C24.0562 9.92204 24.638 8.18864 25.8018 6.95166C26.9655 5.71468 28.6012 5.09619 30.709 5.09619C32.0192 5.09619 33.1748 5.38102 34.1758 5.95068C35.1768 6.52035 35.9458 7.33822 36.4829 8.4043C37.02 9.47038 37.2886 10.7196 37.2886 12.1519ZM50.0327 19L49.5322 17.2544H49.3369C48.9382 17.8892 48.3726 18.3815 47.6401 18.7314C46.9077 19.0732 46.0736 19.2441 45.1377 19.2441C43.5345 19.2441 42.326 18.8169 41.5122 17.9624C40.6984 17.0998 40.2915 15.8628 40.2915 14.2515V5.35254H44.0146V13.3237C44.0146 14.3084 44.1896 15.049 44.5396 15.5454C44.8895 16.0337 45.4469 16.2778 46.2119 16.2778C47.2536 16.2778 48.0063 15.932 48.4702 15.2402C48.9341 14.5404 49.166 13.3848 49.166 11.7734V5.35254H52.8892V19H50.0327ZM61.1167 19.2441C59.5135 19.2441 58.2521 18.6216 57.3325 17.3765C56.4211 16.1313 55.9653 14.4061 55.9653 12.2007C55.9653 9.96273 56.4292 8.22119 57.3569 6.97607C58.2928 5.72282 59.5786 5.09619 61.2144 5.09619C62.9315 5.09619 64.2417 5.76351 65.145 7.09814H65.2671C65.0799 6.08089 64.9863 5.1735 64.9863 4.37598V0.00585938H68.7217V19H65.8652L65.145 17.23H64.9863C64.14 18.5728 62.8501 19.2441 61.1167 19.2441ZM62.4229 16.2778C63.375 16.2778 64.0708 16.0011 64.5103 15.4478C64.9578 14.8944 65.202 13.9544 65.2427 12.6279V12.2251C65.2427 10.7603 65.0148 9.71045 64.5591 9.07568C64.1115 8.44092 63.3791 8.12354 62.3618 8.12354C61.5317 8.12354 60.8848 8.47754 60.4209 9.18555C59.9652 9.88542 59.7373 10.9067 59.7373 12.2495C59.7373 13.5923 59.9692 14.6014 60.4331 15.2769C60.897 15.9442 61.5602 16.2778 62.4229 16.2778Z" fill="#22B7E7"/>
<path d="M80.2085 5.09619C81.8198 5.09619 83.0812 5.72689 83.9927 6.98828C84.9041 8.24154 85.3599 9.96273 85.3599 12.1519C85.3599 14.4061 84.8879 16.1517 83.9438 17.3887C83.008 18.6257 81.7303 19.2441 80.1108 19.2441C78.5076 19.2441 77.2503 18.6623 76.3389 17.4985H76.0825L75.46 19H72.6157V0.00585938H76.3389V4.4248C76.3389 4.98633 76.29 5.88558 76.1924 7.12256H76.3389C77.2096 5.77165 78.4995 5.09619 80.2085 5.09619ZM79.0122 8.07471C78.0926 8.07471 77.4212 8.35954 76.998 8.9292C76.5749 9.49072 76.3551 10.4225 76.3389 11.7246V12.1274C76.3389 13.5923 76.5545 14.6421 76.9858 15.2769C77.4253 15.9116 78.117 16.229 79.061 16.229C79.826 16.229 80.4323 15.8791 80.8799 15.1792C81.3356 14.4712 81.5635 13.4458 81.5635 12.103C81.5635 10.7603 81.3356 9.75521 80.8799 9.08789C80.4242 8.41243 79.8016 8.07471 79.0122 8.07471ZM97.103 19L96.3828 17.1445H96.2852C95.6585 17.9339 95.0116 18.4832 94.3442 18.7925C93.6851 19.0936 92.8224 19.2441 91.7563 19.2441C90.4461 19.2441 89.4126 18.8698 88.6558 18.1211C87.9071 17.3724 87.5327 16.3063 87.5327 14.9229C87.5327 13.4743 88.0373 12.4082 89.0464 11.7246C90.0636 11.0329 91.5936 10.6504 93.6362 10.5771L96.0044 10.5039V9.90576C96.0044 8.5223 95.2964 7.83057 93.8804 7.83057C92.7899 7.83057 91.5081 8.16016 90.0352 8.81934L88.8022 6.30469C90.3729 5.48275 92.1144 5.07178 94.0269 5.07178C95.8579 5.07178 97.2617 5.47054 98.2383 6.26807C99.2148 7.06559 99.7031 8.27816 99.7031 9.90576V19H97.103ZM96.0044 12.6768L94.564 12.7256C93.4816 12.7581 92.6759 12.9535 92.147 13.3115C91.618 13.6696 91.3535 14.2148 91.3535 14.9473C91.3535 15.9971 91.9557 16.522 93.1602 16.522C94.0228 16.522 94.7104 16.2738 95.2231 15.7773C95.744 15.2809 96.0044 14.6217 96.0044 13.7998V12.6768ZM113.07 14.9473C113.07 16.347 112.582 17.4131 111.605 18.1455C110.637 18.8779 109.184 19.2441 107.247 19.2441C106.254 19.2441 105.408 19.175 104.708 19.0366C104.008 18.9064 103.353 18.7111 102.743 18.4507V15.3745C103.434 15.7 104.212 15.9727 105.074 16.1924C105.945 16.4121 106.71 16.522 107.369 16.522C108.72 16.522 109.396 16.1313 109.396 15.3501C109.396 15.0571 109.306 14.8211 109.127 14.6421C108.948 14.4549 108.639 14.2474 108.199 14.0195C107.76 13.7835 107.174 13.5109 106.441 13.2017C105.392 12.7622 104.618 12.3553 104.122 11.981C103.634 11.6066 103.276 11.1794 103.048 10.6992C102.828 10.2109 102.718 9.61279 102.718 8.90479C102.718 7.69222 103.186 6.75635 104.122 6.09717C105.066 5.42985 106.401 5.09619 108.126 5.09619C109.77 5.09619 111.369 5.45426 112.923 6.17041L111.8 8.85596C111.117 8.56299 110.478 8.32292 109.884 8.13574C109.29 7.94857 108.683 7.85498 108.065 7.85498C106.966 7.85498 106.417 8.15202 106.417 8.74609C106.417 9.07975 106.592 9.36865 106.942 9.61279C107.3 9.85693 108.077 10.2191 109.273 10.6992C110.34 11.1305 111.121 11.5334 111.617 11.9077C112.114 12.2821 112.48 12.7134 112.716 13.2017C112.952 13.6899 113.07 14.2718 113.07 14.9473ZM115.816 1.82471C115.816 0.612142 116.492 0.00585938 117.843 0.00585938C119.194 0.00585938 119.869 0.612142 119.869 1.82471C119.869 2.40251 119.698 2.85417 119.356 3.17969C119.023 3.49707 118.518 3.65576 117.843 3.65576C116.492 3.65576 115.816 3.04541 115.816 1.82471ZM119.698 19H115.975V5.35254H119.698V19ZM129.269 7.74512C128.479 7.74512 127.861 7.9974 127.413 8.50195C126.965 8.99837 126.709 9.70638 126.644 10.626H131.869C131.852 9.70638 131.612 8.99837 131.148 8.50195C130.685 7.9974 130.058 7.74512 129.269 7.74512ZM129.793 19.2441C127.596 19.2441 125.879 18.6379 124.642 17.4253C123.405 16.2127 122.787 14.4956 122.787 12.2739C122.787 9.98714 123.356 8.22119 124.496 6.97607C125.643 5.72282 127.226 5.09619 129.244 5.09619C131.173 5.09619 132.674 5.64551 133.749 6.74414C134.823 7.84277 135.36 9.36051 135.36 11.2974V13.104H126.559C126.599 14.1619 126.913 14.988 127.499 15.582C128.084 16.1761 128.906 16.4731 129.964 16.4731C130.786 16.4731 131.563 16.3877 132.296 16.2168C133.028 16.0459 133.793 15.7733 134.591 15.3989V18.2798C133.94 18.6053 133.244 18.8454 132.503 19C131.763 19.1628 130.86 19.2441 129.793 19.2441ZM146.004 5.09619C146.509 5.09619 146.928 5.13281 147.262 5.20605L146.981 8.69727C146.68 8.61589 146.314 8.5752 145.882 8.5752C144.694 8.5752 143.766 8.88037 143.099 9.49072C142.44 10.1011 142.11 10.9556 142.11 12.0542V19H138.387V5.35254H141.207L141.756 7.64746H141.939C142.363 6.88249 142.932 6.26807 143.648 5.8042C144.373 5.33219 145.158 5.09619 146.004 5.09619ZM155.489 16.2778C156.14 16.2778 156.922 16.1354 157.833 15.8506V18.6216C156.905 19.0366 155.766 19.2441 154.415 19.2441C152.926 19.2441 151.839 18.8698 151.156 18.1211C150.48 17.3643 150.143 16.2331 150.143 14.7275V8.14795H148.36V6.57324L150.411 5.32812L151.485 2.44727H153.866V5.35254H157.687V8.14795H153.866V14.7275C153.866 15.2565 154.012 15.6471 154.305 15.8994C154.606 16.1517 155.001 16.2778 155.489 16.2778Z" fill="white"/>
</svg>
